<mxfile host="app.diagrams.net" modified="2024-03-14T17:08:31.839Z" agent="Mozilla/5.0 (Windows NT 10.0; Win64; x64) AppleWebKit/537.36 (KHTML, like Gecko) Chrome/122.0.0.0 Safari/537.36" etag="xD9H9f73DADAxdfcpiGW" version="24.0.6" type="github">
  <diagram id="35y4Zvxp6kL5InugvH4J" name="Page-1">
    <mxGraphModel dx="712" dy="761" grid="1" gridSize="10" guides="1" tooltips="1" connect="1" arrows="1" fold="1" page="1" pageScale="1" pageWidth="827" pageHeight="1169" math="0" shadow="0">
      <root>
        <mxCell id="0" />
        <mxCell id="1" parent="0" />
        <mxCell id="zNUxdT-xkqemT1KSMvEx-4" value="线程A" style="shape=umlLifeline;perimeter=lifelinePerimeter;whiteSpace=wrap;html=1;container=1;dropTarget=0;collapsible=0;recursiveResize=0;outlineConnect=0;portConstraint=eastwest;newEdgeStyle={&quot;curved&quot;:0,&quot;rounded&quot;:0};" vertex="1" parent="1">
          <mxGeometry x="120" y="160" width="120" height="840" as="geometry" />
        </mxCell>
        <mxCell id="zNUxdT-xkqemT1KSMvEx-9" value="" style="html=1;points=[[0,0,0,0,5],[0,1,0,0,-5],[1,0,0,0,5],[1,1,0,0,-5]];perimeter=orthogonalPerimeter;outlineConnect=0;targetShapes=umlLifeline;portConstraint=eastwest;newEdgeStyle={&quot;curved&quot;:0,&quot;rounded&quot;:0};" vertex="1" parent="zNUxdT-xkqemT1KSMvEx-4">
          <mxGeometry x="55" y="160" width="10" height="80" as="geometry" />
        </mxCell>
        <mxCell id="zNUxdT-xkqemT1KSMvEx-22" value="" style="html=1;points=[[0,0,0,0,5],[0,1,0,0,-5],[1,0,0,0,5],[1,1,0,0,-5]];perimeter=orthogonalPerimeter;outlineConnect=0;targetShapes=umlLifeline;portConstraint=eastwest;newEdgeStyle={&quot;curved&quot;:0,&quot;rounded&quot;:0};" vertex="1" parent="zNUxdT-xkqemT1KSMvEx-4">
          <mxGeometry x="60" y="190" width="10" height="40" as="geometry" />
        </mxCell>
        <mxCell id="zNUxdT-xkqemT1KSMvEx-23" value="删除缓存" style="html=1;align=left;spacingLeft=2;endArrow=block;rounded=0;edgeStyle=orthogonalEdgeStyle;curved=0;rounded=0;" edge="1" target="zNUxdT-xkqemT1KSMvEx-22" parent="zNUxdT-xkqemT1KSMvEx-4">
          <mxGeometry x="-0.0057" relative="1" as="geometry">
            <mxPoint x="65" y="170" as="sourcePoint" />
            <Array as="points">
              <mxPoint x="95" y="200" />
            </Array>
            <mxPoint as="offset" />
          </mxGeometry>
        </mxCell>
        <mxCell id="zNUxdT-xkqemT1KSMvEx-45" value="更新数据库&lt;div&gt;id = A&lt;/div&gt;" style="html=1;align=left;spacingLeft=2;endArrow=block;rounded=0;edgeStyle=orthogonalEdgeStyle;curved=0;rounded=0;" edge="1" target="zNUxdT-xkqemT1KSMvEx-44" parent="zNUxdT-xkqemT1KSMvEx-4">
          <mxGeometry relative="1" as="geometry">
            <mxPoint x="65" y="650" as="sourcePoint" />
            <Array as="points">
              <mxPoint x="95" y="680" />
            </Array>
          </mxGeometry>
        </mxCell>
        <mxCell id="zNUxdT-xkqemT1KSMvEx-41" value="" style="html=1;points=[[0,0,0,0,5],[0,1,0,0,-5],[1,0,0,0,5],[1,1,0,0,-5]];perimeter=orthogonalPerimeter;outlineConnect=0;targetShapes=umlLifeline;portConstraint=eastwest;newEdgeStyle={&quot;curved&quot;:0,&quot;rounded&quot;:0};" vertex="1" parent="zNUxdT-xkqemT1KSMvEx-4">
          <mxGeometry x="55" y="640" width="10" height="80" as="geometry" />
        </mxCell>
        <mxCell id="zNUxdT-xkqemT1KSMvEx-44" value="" style="html=1;points=[[0,0,0,0,5],[0,1,0,0,-5],[1,0,0,0,5],[1,1,0,0,-5]];perimeter=orthogonalPerimeter;outlineConnect=0;targetShapes=umlLifeline;portConstraint=eastwest;newEdgeStyle={&quot;curved&quot;:0,&quot;rounded&quot;:0};" vertex="1" parent="zNUxdT-xkqemT1KSMvEx-4">
          <mxGeometry x="60" y="670" width="10" height="40" as="geometry" />
        </mxCell>
        <mxCell id="zNUxdT-xkqemT1KSMvEx-5" value="线程B" style="shape=umlLifeline;perimeter=lifelinePerimeter;whiteSpace=wrap;html=1;container=1;dropTarget=0;collapsible=0;recursiveResize=0;outlineConnect=0;portConstraint=eastwest;newEdgeStyle={&quot;curved&quot;:0,&quot;rounded&quot;:0};" vertex="1" parent="1">
          <mxGeometry x="400" y="160" width="120" height="840" as="geometry" />
        </mxCell>
        <mxCell id="zNUxdT-xkqemT1KSMvEx-31" value="" style="html=1;points=[[0,0,0,0,5],[0,1,0,0,-5],[1,0,0,0,5],[1,1,0,0,-5]];perimeter=orthogonalPerimeter;outlineConnect=0;targetShapes=umlLifeline;portConstraint=eastwest;newEdgeStyle={&quot;curved&quot;:0,&quot;rounded&quot;:0};" vertex="1" parent="zNUxdT-xkqemT1KSMvEx-5">
          <mxGeometry x="55" y="320" width="10" height="240" as="geometry" />
        </mxCell>
        <mxCell id="zNUxdT-xkqemT1KSMvEx-33" value="" style="html=1;points=[[0,0,0,0,5],[0,1,0,0,-5],[1,0,0,0,5],[1,1,0,0,-5]];perimeter=orthogonalPerimeter;outlineConnect=0;targetShapes=umlLifeline;portConstraint=eastwest;newEdgeStyle={&quot;curved&quot;:0,&quot;rounded&quot;:0};" vertex="1" parent="zNUxdT-xkqemT1KSMvEx-5">
          <mxGeometry x="60" y="350" width="10" height="40" as="geometry" />
        </mxCell>
        <mxCell id="zNUxdT-xkqemT1KSMvEx-34" value="查询缓存，未命中缓存" style="html=1;align=left;spacingLeft=2;endArrow=block;rounded=0;edgeStyle=orthogonalEdgeStyle;curved=0;rounded=0;" edge="1" target="zNUxdT-xkqemT1KSMvEx-33" parent="zNUxdT-xkqemT1KSMvEx-5">
          <mxGeometry relative="1" as="geometry">
            <mxPoint x="65" y="330" as="sourcePoint" />
            <Array as="points">
              <mxPoint x="95" y="360" />
            </Array>
          </mxGeometry>
        </mxCell>
        <mxCell id="zNUxdT-xkqemT1KSMvEx-35" value="" style="html=1;points=[[0,0,0,0,5],[0,1,0,0,-5],[1,0,0,0,5],[1,1,0,0,-5]];perimeter=orthogonalPerimeter;outlineConnect=0;targetShapes=umlLifeline;portConstraint=eastwest;newEdgeStyle={&quot;curved&quot;:0,&quot;rounded&quot;:0};" vertex="1" parent="zNUxdT-xkqemT1KSMvEx-5">
          <mxGeometry x="60" y="430" width="10" height="40" as="geometry" />
        </mxCell>
        <mxCell id="zNUxdT-xkqemT1KSMvEx-36" value="查询DB,得到数据 id = B" style="html=1;align=left;spacingLeft=2;endArrow=block;rounded=0;edgeStyle=orthogonalEdgeStyle;curved=0;rounded=0;" edge="1" target="zNUxdT-xkqemT1KSMvEx-35" parent="zNUxdT-xkqemT1KSMvEx-5">
          <mxGeometry relative="1" as="geometry">
            <mxPoint x="65" y="410" as="sourcePoint" />
            <Array as="points">
              <mxPoint x="95" y="440" />
            </Array>
          </mxGeometry>
        </mxCell>
        <mxCell id="zNUxdT-xkqemT1KSMvEx-37" value="" style="html=1;points=[[0,0,0,0,5],[0,1,0,0,-5],[1,0,0,0,5],[1,1,0,0,-5]];perimeter=orthogonalPerimeter;outlineConnect=0;targetShapes=umlLifeline;portConstraint=eastwest;newEdgeStyle={&quot;curved&quot;:0,&quot;rounded&quot;:0};" vertex="1" parent="zNUxdT-xkqemT1KSMvEx-5">
          <mxGeometry x="60" y="510" width="10" height="40" as="geometry" />
        </mxCell>
        <mxCell id="zNUxdT-xkqemT1KSMvEx-38" value="更新缓存 id = B" style="html=1;align=left;spacingLeft=2;endArrow=block;rounded=0;edgeStyle=orthogonalEdgeStyle;curved=0;rounded=0;" edge="1" target="zNUxdT-xkqemT1KSMvEx-37" parent="zNUxdT-xkqemT1KSMvEx-5">
          <mxGeometry x="-0.0057" relative="1" as="geometry">
            <mxPoint x="65" y="490" as="sourcePoint" />
            <Array as="points">
              <mxPoint x="95" y="520" />
            </Array>
            <mxPoint as="offset" />
          </mxGeometry>
        </mxCell>
        <mxCell id="zNUxdT-xkqemT1KSMvEx-7" value="" style="edgeStyle=none;orthogonalLoop=1;jettySize=auto;html=1;rounded=0;" edge="1" parent="1">
          <mxGeometry width="80" relative="1" as="geometry">
            <mxPoint x="80" y="240" as="sourcePoint" />
            <mxPoint x="180" y="240" as="targetPoint" />
            <Array as="points" />
          </mxGeometry>
        </mxCell>
        <mxCell id="zNUxdT-xkqemT1KSMvEx-8" value="写操作 id = A&amp;nbsp;" style="edgeLabel;html=1;align=center;verticalAlign=middle;resizable=0;points=[];" vertex="1" connectable="0" parent="zNUxdT-xkqemT1KSMvEx-7">
          <mxGeometry x="-0.05" y="2" relative="1" as="geometry">
            <mxPoint as="offset" />
          </mxGeometry>
        </mxCell>
        <mxCell id="zNUxdT-xkqemT1KSMvEx-20" value="" style="endArrow=none;dashed=1;html=1;rounded=0;" edge="1" parent="1">
          <mxGeometry width="50" height="50" relative="1" as="geometry">
            <mxPoint x="80" y="280" as="sourcePoint" />
            <mxPoint x="560" y="280" as="targetPoint" />
          </mxGeometry>
        </mxCell>
        <mxCell id="zNUxdT-xkqemT1KSMvEx-21" value="缓存：B&lt;div&gt;数据库：B&lt;/div&gt;" style="text;html=1;align=center;verticalAlign=middle;resizable=0;points=[];autosize=1;strokeColor=none;fillColor=none;" vertex="1" parent="1">
          <mxGeometry x="500" y="243" width="80" height="40" as="geometry" />
        </mxCell>
        <mxCell id="zNUxdT-xkqemT1KSMvEx-24" value="" style="endArrow=none;dashed=1;html=1;rounded=0;" edge="1" parent="1">
          <mxGeometry width="50" height="50" relative="1" as="geometry">
            <mxPoint x="80" y="440" as="sourcePoint" />
            <mxPoint x="560" y="440" as="targetPoint" />
          </mxGeometry>
        </mxCell>
        <mxCell id="zNUxdT-xkqemT1KSMvEx-25" value="缓存：无&lt;div&gt;数据库：B&lt;/div&gt;" style="text;html=1;align=center;verticalAlign=middle;resizable=0;points=[];autosize=1;strokeColor=none;fillColor=none;" vertex="1" parent="1">
          <mxGeometry x="500" y="400" width="80" height="40" as="geometry" />
        </mxCell>
        <mxCell id="zNUxdT-xkqemT1KSMvEx-26" value="" style="edgeStyle=none;orthogonalLoop=1;jettySize=auto;html=1;rounded=0;" edge="1" parent="1">
          <mxGeometry width="80" relative="1" as="geometry">
            <mxPoint x="360" y="260" as="sourcePoint" />
            <mxPoint x="460" y="260" as="targetPoint" />
            <Array as="points" />
          </mxGeometry>
        </mxCell>
        <mxCell id="zNUxdT-xkqemT1KSMvEx-29" value="读操作" style="edgeLabel;html=1;align=center;verticalAlign=middle;resizable=0;points=[];" vertex="1" connectable="0" parent="zNUxdT-xkqemT1KSMvEx-26">
          <mxGeometry x="-0.08" y="2" relative="1" as="geometry">
            <mxPoint as="offset" />
          </mxGeometry>
        </mxCell>
        <mxCell id="zNUxdT-xkqemT1KSMvEx-39" value="" style="endArrow=none;dashed=1;html=1;rounded=0;" edge="1" parent="1">
          <mxGeometry width="50" height="50" relative="1" as="geometry">
            <mxPoint x="80" y="760" as="sourcePoint" />
            <mxPoint x="560" y="760" as="targetPoint" />
          </mxGeometry>
        </mxCell>
        <mxCell id="zNUxdT-xkqemT1KSMvEx-40" value="缓存：B&lt;div&gt;数据库：B&lt;/div&gt;" style="text;html=1;align=center;verticalAlign=middle;resizable=0;points=[];autosize=1;strokeColor=none;fillColor=none;" vertex="1" parent="1">
          <mxGeometry x="500" y="720" width="80" height="40" as="geometry" />
        </mxCell>
        <mxCell id="zNUxdT-xkqemT1KSMvEx-46" value="" style="endArrow=none;dashed=1;html=1;rounded=0;" edge="1" parent="1">
          <mxGeometry width="50" height="50" relative="1" as="geometry">
            <mxPoint x="80" y="920" as="sourcePoint" />
            <mxPoint x="560" y="920" as="targetPoint" />
          </mxGeometry>
        </mxCell>
        <mxCell id="zNUxdT-xkqemT1KSMvEx-47" value="缓存：B&lt;div&gt;数据库：A&lt;/div&gt;" style="text;html=1;align=center;verticalAlign=middle;resizable=0;points=[];autosize=1;strokeColor=none;fillColor=none;" vertex="1" parent="1">
          <mxGeometry x="500" y="880" width="80" height="40" as="geometry" />
        </mxCell>
      </root>
    </mxGraphModel>
  </diagram>
</mxfile>
